<?xml version="1.0" standalone="no"?>
<!DOCTYPE svg PUBLIC "-//W3C//DTD SVG 20010904//EN"
 "http://www.w3.org/TR/2001/REC-SVG-20010904/DTD/svg10.dtd">
<svg version="1.0" xmlns="http://www.w3.org/2000/svg"
 width="2000.000000pt" height="2000.000000pt" viewBox="0 0 2000.000000 2000.000000"
 preserveAspectRatio="xMidYMid meet">
<metadata>
Created by potrace 1.11, written by Peter Selinger 2001-2013
</metadata>
<g transform="translate(0.000000,2000.000000) scale(0.100000,-0.100000)"
fill="#000000" stroke="none">
<path d="M9618 19945 c-2 -2 -70 -6 -153 -10 -82 -4 -166 -8 -185 -10 -19 -2
-75 -6 -125 -10 -49 -3 -101 -8 -115 -10 -14 -2 -56 -6 -95 -10 -38 -3 -117
-12 -175 -20 -58 -8 -127 -17 -155 -20 -27 -4 -61 -8 -75 -11 -14 -2 -56 -9
-93 -14 -79 -12 -196 -32 -317 -55 -47 -10 -96 -18 -110 -20 -109 -15 -606
-138 -855 -212 -168 -50 -598 -194 -609 -204 -6 -5 -16 -9 -23 -9 -24 0 -352
-132 -603 -242 -141 -62 -521 -248 -650 -319 -88 -47 -218 -120 -242 -134 -9
-5 -47 -27 -85 -49 -106 -60 -436 -267 -459 -287 -11 -11 -23 -19 -27 -19 -18
0 -372 -254 -594 -426 -164 -128 -417 -334 -438 -358 -5 -6 -46 -43 -90 -81
-44 -39 -105 -93 -135 -120 -94 -86 -481 -476 -575 -579 -49 -54 -95 -104
-100 -110 -23 -25 -253 -293 -275 -322 -14 -17 -60 -74 -102 -127 -92 -114
-282 -369 -359 -482 -29 -44 -58 -84 -62 -90 -27 -33 -357 -550 -357 -559 0
-2 -17 -33 -38 -67 -21 -35 -52 -89 -69 -119 -16 -30 -40 -73 -53 -95 -134
-235 -380 -758 -504 -1075 -32 -80 -61 -154 -67 -165 -23 -51 -134 -375 -209
-610 -38 -121 -145 -511 -165 -605 -2 -8 -17 -73 -33 -145 -50 -217 -125 -631
-147 -810 -4 -27 -8 -61 -10 -75 -2 -14 -7 -51 -10 -83 -4 -32 -8 -66 -10 -75
-1 -9 -6 -53 -10 -97 -4 -44 -9 -93 -11 -110 -2 -16 -6 -66 -9 -110 -3 -44 -8
-105 -10 -135 -14 -177 -19 -351 -19 -640 0 -284 9 -597 18 -648 2 -9 7 -68
11 -131 4 -63 8 -121 10 -130 1 -9 6 -54 10 -101 4 -47 9 -94 11 -105 4 -18
11 -84 19 -160 3 -32 13 -103 20 -145 2 -14 7 -44 10 -68 10 -69 42 -257 65
-377 12 -60 23 -119 25 -130 15 -91 150 -646 174 -715 5 -14 18 -56 30 -95 35
-122 122 -399 131 -420 5 -11 18 -49 30 -85 12 -36 25 -74 30 -85 5 -11 32
-81 60 -155 28 -74 60 -154 70 -177 11 -24 20 -46 20 -49 0 -4 36 -90 81 -193
133 -306 325 -689 479 -956 13 -22 28 -49 34 -60 16 -28 131 -219 169 -280
119 -191 447 -669 496 -722 9 -10 27 -34 41 -53 40 -58 335 -421 395 -486 5
-6 35 -39 65 -73 145 -163 211 -233 430 -451 299 -299 362 -357 645 -595 44
-36 89 -74 100 -84 66 -56 352 -274 475 -362 298 -215 634 -431 905 -581 44
-25 100 -56 125 -70 572 -320 1322 -632 1980 -824 260 -76 664 -177 785 -197
17 -3 66 -12 110 -21 129 -26 178 -35 215 -40 19 -3 46 -8 60 -10 61 -11 219
-36 260 -41 25 -3 77 -10 115 -15 120 -16 155 -19 325 -36 36 -3 81 -8 100
-10 19 -2 69 -6 110 -8 41 -3 127 -8 190 -13 63 -4 302 -8 530 -8 364 0 508 4
755 20 86 5 276 22 335 30 19 2 60 7 90 10 66 8 104 12 150 19 19 3 100 15
180 26 80 12 181 28 225 35 44 8 94 17 110 20 17 2 41 7 55 10 14 3 39 8 55
11 17 3 102 21 190 40 88 19 171 37 185 40 14 3 102 25 195 50 94 24 179 46
189 49 11 2 40 11 66 20 26 9 55 17 66 20 94 19 574 184 824 282 925 363 1811
874 2575 1487 121 97 317 259 365 303 19 17 46 41 59 52 151 131 582 556 711
702 36 40 77 86 91 101 39 42 132 148 165 188 16 19 31 37 34 40 65 57 630
809 630 837 0 4 8 16 19 27 50 55 349 545 485 796 56 103 270 531 308 615 14
33 35 80 46 105 11 25 32 72 47 105 15 33 53 125 85 205 53 134 73 184 165
435 82 224 197 613 272 920 27 110 89 387 97 432 2 15 12 66 21 113 9 47 19
98 21 114 2 15 5 35 8 45 3 9 8 41 11 71 4 30 8 57 10 60 2 3 6 34 10 70 4 36
8 67 10 70 2 3 6 34 10 70 4 36 9 74 11 85 2 11 6 49 9 85 3 36 8 72 10 80 2
8 7 56 11 105 3 50 8 98 10 109 2 10 6 64 9 120 4 55 8 117 10 136 25 249 25
1023 0 1270 -2 19 -6 76 -10 125 -3 50 -8 101 -10 115 -2 14 -6 57 -10 95 -3
39 -8 84 -10 100 -2 17 -7 53 -10 80 -3 28 -10 77 -15 110 -5 33 -12 83 -15
110 -4 28 -12 88 -20 135 -8 47 -16 101 -19 120 -9 57 -76 388 -97 480 -12 47
-23 96 -25 110 -3 14 -11 48 -19 75 -8 28 -16 61 -19 75 -5 30 -76 290 -112
410 -56 187 -186 573 -223 660 -6 14 -36 90 -67 170 -282 721 -708 1497 -1186
2158 -105 145 -258 347 -293 386 -6 6 -40 47 -75 91 -76 94 -82 101 -190 225
-165 190 -269 300 -505 535 -255 254 -280 278 -606 560 -55 47 -333 267 -446
353 -268 201 -666 468 -917 612 -363 209 -739 402 -1021 525 -71 31 -143 62
-160 69 -253 112 -744 287 -1098 390 -153 45 -370 103 -417 112 -14 3 -33 7
-42 10 -9 3 -25 6 -35 8 -10 2 -36 9 -58 14 -32 8 -245 53 -370 78 -11 2 -74
13 -140 24 -66 11 -131 22 -145 24 -33 6 -222 34 -285 41 -27 4 -61 8 -75 10
-14 2 -50 7 -80 10 -30 3 -75 8 -100 11 -25 2 -72 7 -105 9 -33 3 -73 7 -90 9
-16 3 -79 8 -140 11 -60 3 -139 9 -175 12 -71 5 -906 13 -912 8z"/>
</g>
</svg>
